<svg xmlns="http://www.w3.org/2000/svg" xmlns:svg="http://www.w3.org/2000/svg" xmlns:xlink="http://www.w3.org/1999/xlink" id="svg2845" width="400" height="400" x="0" y="0" version="1.1" viewBox="0 0 400 400" xml:space="preserve"><defs id="defs2849"><defs id="defs2656"><rect id="SVGID_00000163058692944689741200000006244473122847745664_" width="2578.372" height="685.017" x="-9.185" y="-10" transform="rotate(180,1280.0003,332.50865)"/></defs><clipPath id="SVGID_00000065036029895482507690000013570039648581839288_"><use xlink:href="#SVGID_00000163058692944689741200000006244473122847745664_" style="overflow:visible" id="use2658"/></clipPath></defs><rect style="fill:#a3cbe7;stroke:#000" id="rect3623" width="631.909" height="545.84" x="-116.811" y="-85.701"/><g id="g3621" transform="matrix(1.2820265,-1.0665917,1.0665917,1.2820265,-353.44174,303.79733)"><g id="g3481" transform="translate(0.6576945,13.129652)"><g id="g2651" transform="matrix(0.27831955,0,0,0.27831955,-147.31561,92.161889)"><defs id="defs2536"><rect id="SVGID_00000076571260616704523350000016317467122434384024_" width="2577.365" height="321.579" x="-8.179" y="354.057"/></defs><clipPath id="SVGID_00000013909468111042706110000005381801441477567154_"><use xlink:href="#SVGID_00000076571260616704523350000016317467122434384024_" style="overflow:visible" id="use2538"/></clipPath><g id="g2617" clip-path="url(#SVGID_00000013909468111042706110000005381801441477567154_)"><path style="opacity:.7;fill:#7a5432" id="path2593" d="m 2863.056,220.785 v 173.02 59.321 63.582 c 0,16.169 13.108,29.277 29.277,29.277 v 0 c 16.169,0 29.277,-13.108 29.277,-29.277 v -25.779 c 0,-20.878 16.925,-37.803 37.803,-37.803 v 0 c 20.878,0 37.803,16.925 37.803,37.803 v 79.767 c 0,28.051 21.993,51.761 50.033,52.53 29.092,0.798 52.926,-22.547 52.926,-51.459 v -56.591 c 0,-34.269 27.781,-62.05 62.05,-62.05 v 0 c 34.269,0 62.05,27.781 62.05,62.05 v 11.413 c 0,15.236 11.709,28.346 26.928,29.062 16.249,0.765 29.664,-12.183 29.664,-28.263 v -28.115 c 0,-25.486 20.66,-46.146 46.146,-46.146 h 42.379 c 25.486,0 46.146,20.66 46.146,46.146 v 0 c 0,28.05 21.993,51.761 50.033,52.53 29.092,0.798 52.925,-22.547 52.925,-51.459 v -24.378 c 0,-12.614 10.226,-22.839 22.84,-22.839 v 0 c 12.614,0 22.84,10.226 22.84,22.839 v 98.651 c 0,28.05 21.993,51.761 50.033,52.53 29.092,0.797 52.926,-22.548 52.926,-51.459 V 505.38 c 0,-28.86 23.396,-52.255 52.255,-52.255 v 0 c 28.86,0 52.255,23.395 52.255,52.255 v 50.14 c 0,15.236 11.708,28.346 26.927,29.062 16.249,0.765 29.664,-12.183 29.664,-28.263 V 453.125 355.174 220.785 Z"/><path style="fill:#d2597c" id="path2595" d="m 2863.056,207.272 v 173.02 59.321 63.582 c 0,16.169 13.108,29.277 29.277,29.277 v 0 c 16.169,0 29.277,-13.108 29.277,-29.277 v -25.779 c 0,-20.878 16.925,-37.803 37.803,-37.803 v 0 c 20.878,0 37.803,16.925 37.803,37.803 v 79.767 c 0,28.051 21.993,51.761 50.033,52.53 29.092,0.798 52.926,-22.547 52.926,-51.459 v -56.591 c 0,-34.269 27.781,-62.05 62.05,-62.05 v 0 c 34.269,0 62.05,27.781 62.05,62.05 v 11.413 c 0,15.236 11.709,28.346 26.928,29.062 16.249,0.765 29.664,-12.183 29.664,-28.263 V 485.76 c 0,-25.486 20.66,-46.146 46.146,-46.146 h 42.379 c 25.486,0 46.146,20.66 46.146,46.146 v 0 c 0,28.051 21.993,51.761 50.033,52.53 29.092,0.798 52.925,-22.547 52.925,-51.459 v -24.378 c 0,-12.614 10.226,-22.839 22.84,-22.839 v 0 c 12.614,0 22.84,10.226 22.84,22.839 v 98.651 c 0,28.05 21.993,51.761 50.033,52.53 29.092,0.797 52.926,-22.548 52.926,-51.459 v -70.306 c 0,-28.86 23.396,-52.255 52.255,-52.255 v 0 c 28.86,0 52.255,23.395 52.255,52.255 v 50.14 c 0,15.236 11.708,28.346 26.927,29.062 16.249,0.765 29.664,-12.183 29.664,-28.263 V 439.613 341.662 207.272 Z"/><g id="g2615"><path style="fill:#f1c8ce" id="path2597" d="m 3251.202,529.256 c -15.219,-0.717 -26.928,-13.826 -26.928,-29.062 v -11.413 c 0,-34.269 -27.781,-62.05 -62.05,-62.05 v 0 c -34.269,0 -62.05,27.781 -62.05,62.05 v 12.882 c 0,-34.269 27.781,-62.05 62.05,-62.05 v 0 c 34.269,0 62.05,27.781 62.05,62.05 v 11.413 c 0,15.236 11.709,28.346 26.928,29.062 16.249,0.765 29.664,-12.183 29.664,-28.263 v -12.882 c 0,16.08 -13.415,29.028 -29.664,28.263 z"/><path style="fill:#f1c8ce" id="path2599" d="m 3465.57,525.408 c -28.04,-0.769 -50.033,-24.48 -50.033,-52.53 v 0 c 0,-25.486 -20.66,-46.146 -46.146,-46.146 h -42.379 c -25.486,0 -46.146,20.661 -46.146,46.146 v 12.882 c 0,-25.486 20.661,-46.146 46.146,-46.146 h 42.379 c 25.486,0 46.146,20.66 46.146,46.146 v 0 c 0,28.051 21.993,51.761 50.033,52.53 29.091,0.798 52.925,-22.547 52.925,-51.459 v -12.882 c 0,28.911 -23.834,52.256 -52.925,51.459 z"/><path style="fill:#f1c8ce" id="path2601" d="m 3047.249,596.831 c -28.04,-0.769 -50.033,-24.48 -50.033,-52.53 v 12.882 c 0,28.051 21.993,51.761 50.033,52.53 29.092,0.798 52.926,-22.547 52.926,-51.459 v -12.882 c 0,28.911 -23.835,52.256 -52.926,51.459 z"/><path style="fill:#f1c8ce" id="path2603" d="m 2892.333,519.59 v 0 c -16.17,0 -29.277,-13.108 -29.277,-29.277 v 12.882 c 0,16.169 13.107,29.277 29.277,29.277 v 0 c 16.169,0 29.277,-13.108 29.277,-29.277 v -12.882 c 0,16.169 -13.108,29.277 -29.277,29.277 z"/><path style="fill:#f1c8ce" id="path2605" d="m 2997.216,464.534 c 0,-20.878 -16.925,-37.803 -37.803,-37.803 -20.878,0 -37.803,16.925 -37.803,37.803 v 12.882 c 0,-20.878 16.925,-37.803 37.803,-37.803 20.878,0 37.803,16.925 37.803,37.803 z"/><path style="fill:#f1c8ce" id="path2607" d="m 3564.174,449.57 c 0,-12.614 -10.225,-22.84 -22.84,-22.84 -12.615,0 -22.84,10.226 -22.84,22.84 v 12.882 c 0,-12.614 10.225,-22.839 22.84,-22.839 12.615,0 22.84,10.225 22.84,22.839 z"/><path style="fill:#f1c8ce" id="path2609" d="m 3771.643,478.986 c 0,-28.86 -23.395,-52.255 -52.255,-52.255 -28.859,0 -52.255,23.395 -52.255,52.255 v 12.882 c 0,-28.86 23.396,-52.255 52.255,-52.255 28.86,0 52.255,23.395 52.255,52.255 z"/><path style="fill:#f1c8ce" id="path2611" d="m 3798.57,558.188 c -15.219,-0.717 -26.927,-13.827 -26.927,-29.062 v 12.882 c 0,15.236 11.708,28.346 26.927,29.062 16.249,0.765 29.664,-12.182 29.664,-28.263 v -12.882 c 0,16.08 -13.414,29.028 -29.664,28.263 z"/><path style="fill:#f1c8ce" id="path2613" d="m 3614.207,600.751 c -28.04,-0.769 -50.033,-24.48 -50.033,-52.53 v 12.882 c 0,28.051 21.993,51.761 50.033,52.53 29.092,0.798 52.926,-22.547 52.926,-51.459 v -12.882 c 0,28.912 -23.834,52.257 -52.926,51.459 z"/></g></g><g id="g3330" transform="translate(-30.376419,-389.04427)"><g id="g2565" clip-path="url(#SVGID_00000013909468111042706110000005381801441477567154_)"><path style="opacity:.7;fill:#e5a3a1" id="path2541" d="m 933.519,220.785 v 173.02 59.321 63.582 c 0,16.169 13.108,29.277 29.277,29.277 v 0 c 16.169,0 29.277,-13.108 29.277,-29.277 v -25.779 c 0,-20.878 16.925,-37.803 37.803,-37.803 v 0 c 20.878,0 37.803,16.925 37.803,37.803 v 79.767 c 0,28.051 21.993,51.761 50.033,52.53 29.092,0.798 52.926,-22.547 52.926,-51.459 v -56.591 c 0,-34.269 27.781,-62.05 62.05,-62.05 v 0 c 34.269,0 62.05,27.781 62.05,62.05 v 11.413 c 0,15.236 11.709,28.346 26.928,29.062 16.249,0.765 29.663,-12.183 29.663,-28.263 v -28.115 c 0,-25.486 20.661,-46.146 46.146,-46.146 h 42.379 c 25.486,0 46.146,20.66 46.146,46.146 v 0 c 0,28.05 21.993,51.761 50.033,52.53 29.092,0.798 52.925,-22.547 52.925,-51.459 v -24.378 c 0,-12.614 10.226,-22.839 22.84,-22.839 v 0 c 12.614,0 22.84,10.226 22.84,22.839 v 98.651 c 0,28.05 21.993,51.761 50.033,52.53 29.092,0.797 52.926,-22.548 52.926,-51.459 V 505.38 c 0,-28.86 23.395,-52.255 52.255,-52.255 v 0 c 28.86,0 52.255,23.395 52.255,52.255 v 50.14 c 0,15.236 11.709,28.346 26.928,29.062 16.249,0.765 29.664,-12.183 29.664,-28.263 V 453.125 355.174 220.785 Z"/><path style="fill:#e5a3a1" id="path2543" d="m 933.519,207.272 v 173.02 59.321 63.582 c 0,16.169 13.108,29.277 29.277,29.277 v 0 c 16.169,0 29.277,-13.108 29.277,-29.277 v -25.779 c 0,-20.878 16.925,-37.803 37.803,-37.803 v 0 c 20.878,0 37.803,16.925 37.803,37.803 v 79.767 c 0,28.051 21.993,51.761 50.033,52.53 29.092,0.798 52.926,-22.547 52.926,-51.459 v -56.591 c 0,-34.269 27.781,-62.05 62.05,-62.05 v 0 c 34.269,0 62.05,27.781 62.05,62.05 v 11.413 c 0,15.236 11.709,28.346 26.928,29.062 16.249,0.765 29.663,-12.183 29.663,-28.263 V 485.76 c 0,-25.486 20.661,-46.146 46.146,-46.146 h 42.379 c 25.486,0 46.146,20.66 46.146,46.146 v 0 c 0,28.051 21.993,51.761 50.033,52.53 29.092,0.798 52.925,-22.547 52.925,-51.459 v -24.378 c 0,-12.614 10.226,-22.839 22.84,-22.839 v 0 c 12.614,0 22.84,10.226 22.84,22.839 v 98.651 c 0,28.05 21.993,51.761 50.033,52.53 29.092,0.797 52.926,-22.548 52.926,-51.459 v -70.306 c 0,-28.86 23.395,-52.255 52.255,-52.255 v 0 c 28.86,0 52.255,23.395 52.255,52.255 v 50.14 c 0,15.236 11.709,28.346 26.928,29.062 16.249,0.765 29.664,-12.183 29.664,-28.263 V 439.613 341.662 207.272 Z"/><g id="g2563"><path style="fill:#f1c8ce" id="path2545" d="m 1321.665,529.256 c -15.219,-0.717 -26.928,-13.826 -26.928,-29.062 v -11.413 c 0,-34.269 -27.781,-62.05 -62.05,-62.05 v 0 c -34.269,0 -62.05,27.781 -62.05,62.05 v 12.882 c 0,-34.269 27.781,-62.05 62.05,-62.05 v 0 c 34.269,0 62.05,27.781 62.05,62.05 v 11.413 c 0,15.236 11.709,28.346 26.928,29.062 16.249,0.765 29.663,-12.183 29.663,-28.263 v -12.882 c 0,16.08 -13.414,29.028 -29.663,28.263 z"/><path style="fill:#f1c8ce" id="path2547" d="M 1536.033,525.408 C 1507.993,524.639 1486,500.928 1486,472.878 v 0 c 0,-25.486 -20.66,-46.146 -46.146,-46.146 h -42.379 c -25.486,0 -46.146,20.661 -46.146,46.146 v 12.882 c 0,-25.486 20.661,-46.146 46.146,-46.146 h 42.379 c 25.486,0 46.146,20.66 46.146,46.146 v 0 c 0,28.051 21.993,51.761 50.033,52.53 29.091,0.798 52.925,-22.547 52.925,-51.459 v -12.882 c 0,28.911 -23.834,52.256 -52.925,51.459 z"/><path style="fill:#f1c8ce" id="path2549" d="m 1117.712,596.831 c -28.04,-0.769 -50.033,-24.48 -50.033,-52.53 v 12.882 c 0,28.051 21.993,51.761 50.033,52.53 29.092,0.798 52.926,-22.547 52.926,-51.459 v -12.882 c -10e-4,28.911 -23.835,52.256 -52.926,51.459 z"/><path style="fill:#f1c8ce" id="path2551" d="m 962.796,519.59 v 0 c -16.17,0 -29.277,-13.108 -29.277,-29.277 v 12.882 c 0,16.169 13.108,29.277 29.277,29.277 v 0 c 16.169,0 29.277,-13.108 29.277,-29.277 v -12.882 c 0,16.169 -13.107,29.277 -29.277,29.277 z"/><path style="fill:#f1c8ce" id="path2553" d="m 1067.679,464.534 c 0,-20.878 -16.925,-37.803 -37.803,-37.803 -20.878,0 -37.803,16.925 -37.803,37.803 v 12.882 c 0,-20.878 16.925,-37.803 37.803,-37.803 20.878,0 37.803,16.925 37.803,37.803 z"/><path style="fill:#f1c8ce" id="path2555" d="m 1634.638,449.57 c 0,-12.614 -10.225,-22.84 -22.84,-22.84 -12.615,0 -22.84,10.226 -22.84,22.84 v 12.882 c 0,-12.614 10.225,-22.839 22.84,-22.839 12.615,0 22.84,10.225 22.84,22.839 z"/><path style="fill:#f1c8ce" id="path2557" d="m 1842.106,478.986 c 0,-28.86 -23.395,-52.255 -52.255,-52.255 -28.859,0 -52.255,23.395 -52.255,52.255 v 12.882 c 0,-28.86 23.396,-52.255 52.255,-52.255 28.86,0 52.255,23.395 52.255,52.255 z"/><path style="fill:#f1c8ce" id="path2559" d="m 1869.033,558.188 c -15.219,-0.717 -26.927,-13.827 -26.927,-29.062 v 12.882 c 0,15.236 11.708,28.346 26.927,29.062 16.249,0.765 29.664,-12.182 29.664,-28.263 v -12.882 c 0,16.08 -13.414,29.028 -29.664,28.263 z"/><path style="fill:#f1c8ce" id="path2561" d="m 1684.67,600.751 c -28.04,-0.769 -50.033,-24.48 -50.033,-52.53 v 12.882 c 0,28.051 21.993,51.761 50.033,52.53 29.092,0.798 52.926,-22.547 52.926,-51.459 v -12.882 c 0,28.912 -23.834,52.257 -52.926,51.459 z"/></g></g><g id="g2591" clip-path="url(#SVGID_00000013909468111042706110000005381801441477567154_)"><path style="opacity:.7;fill:#e5a3a1" id="path2567" d="m 1897.878,220.785 v 173.02 59.321 63.582 c 0,16.169 13.108,29.277 29.277,29.277 v 0 c 16.169,0 29.277,-13.108 29.277,-29.277 v -25.779 c 0,-20.878 16.925,-37.803 37.803,-37.803 v 0 c 20.878,0 37.803,16.925 37.803,37.803 v 79.767 c 0,28.051 21.993,51.761 50.033,52.53 29.092,0.798 52.926,-22.547 52.926,-51.459 v -56.591 c 0,-34.269 27.781,-62.05 62.05,-62.05 v 0 c 34.269,0 62.05,27.781 62.05,62.05 v 11.413 c 0,15.236 11.709,28.346 26.928,29.062 16.249,0.765 29.663,-12.183 29.663,-28.263 v -28.115 c 0,-25.486 20.661,-46.146 46.146,-46.146 h 42.379 c 25.486,0 46.146,20.66 46.146,46.146 v 0 c 0,28.05 21.993,51.761 50.033,52.53 29.092,0.798 52.926,-22.547 52.926,-51.459 v -24.378 c 0,-12.614 10.226,-22.839 22.84,-22.839 v 0 c 12.614,0 22.84,10.226 22.84,22.839 v 98.651 c 0,28.05 21.993,51.761 50.033,52.53 29.092,0.797 52.926,-22.548 52.926,-51.459 V 505.38 c 0,-28.86 23.395,-52.255 52.255,-52.255 v 0 c 28.86,0 52.255,23.395 52.255,52.255 v 50.14 c 0,15.236 11.708,28.346 26.927,29.062 16.249,0.765 29.664,-12.183 29.664,-28.263 V 453.125 355.174 220.785 Z"/><path style="fill:#e5a3a1" id="path2569" d="m 1897.878,207.272 v 173.02 59.321 63.582 c 0,16.169 13.108,29.277 29.277,29.277 v 0 c 16.169,0 29.277,-13.108 29.277,-29.277 v -25.779 c 0,-20.878 16.925,-37.803 37.803,-37.803 v 0 c 20.878,0 37.803,16.925 37.803,37.803 v 79.767 c 0,28.051 21.993,51.761 50.033,52.53 29.092,0.798 52.926,-22.547 52.926,-51.459 v -56.591 c 0,-34.269 27.781,-62.05 62.05,-62.05 v 0 c 34.269,0 62.05,27.781 62.05,62.05 v 11.413 c 0,15.236 11.709,28.346 26.928,29.062 16.249,0.765 29.663,-12.183 29.663,-28.263 V 485.76 c 0,-25.486 20.661,-46.146 46.146,-46.146 h 42.379 c 25.486,0 46.146,20.66 46.146,46.146 v 0 c 0,28.051 21.993,51.761 50.033,52.53 29.092,0.798 52.926,-22.547 52.926,-51.459 v -24.378 c 0,-12.614 10.226,-22.839 22.84,-22.839 v 0 c 12.614,0 22.84,10.226 22.84,22.839 v 98.651 c 0,28.05 21.993,51.761 50.033,52.53 29.092,0.797 52.926,-22.548 52.926,-51.459 v -70.306 c 0,-28.86 23.395,-52.255 52.255,-52.255 v 0 c 28.86,0 52.255,23.395 52.255,52.255 v 50.14 c 0,15.236 11.708,28.346 26.927,29.062 16.249,0.765 29.664,-12.183 29.664,-28.263 V 439.613 341.662 207.272 Z"/><g id="g2589"><path style="fill:#f1c8ce" id="path2571" d="m 2286.024,529.256 c -15.219,-0.717 -26.928,-13.826 -26.928,-29.062 v -11.413 c 0,-34.269 -27.781,-62.05 -62.05,-62.05 v 0 c -34.269,0 -62.05,27.781 -62.05,62.05 v 12.882 c 0,-34.269 27.781,-62.05 62.05,-62.05 v 0 c 34.269,0 62.05,27.781 62.05,62.05 v 11.413 c 0,15.236 11.709,28.346 26.928,29.062 16.249,0.765 29.663,-12.183 29.663,-28.263 v -12.882 c 0,16.08 -13.414,29.028 -29.663,28.263 z"/><path style="fill:#f1c8ce" id="path2573" d="m 2500.392,525.408 c -28.04,-0.769 -50.033,-24.48 -50.033,-52.53 v 0 c 0,-25.486 -20.66,-46.146 -46.146,-46.146 h -42.379 c -25.486,0 -46.146,20.661 -46.146,46.146 v 12.882 c 0,-25.486 20.661,-46.146 46.146,-46.146 h 42.379 c 25.486,0 46.146,20.66 46.146,46.146 v 0 c 0,28.051 21.993,51.761 50.033,52.53 29.092,0.798 52.926,-22.547 52.926,-51.459 v -12.882 c 0,28.911 -23.835,52.256 -52.926,51.459 z"/><path style="fill:#f1c8ce" id="path2575" d="m 2082.071,596.831 c -28.04,-0.769 -50.033,-24.48 -50.033,-52.53 v 12.882 c 0,28.051 21.993,51.761 50.033,52.53 29.092,0.798 52.926,-22.547 52.926,-51.459 v -12.882 c -10e-4,28.911 -23.835,52.256 -52.926,51.459 z"/><path style="fill:#f1c8ce" id="path2577" d="m 1927.155,519.59 v 0 c -16.17,0 -29.277,-13.108 -29.277,-29.277 v 12.882 c 0,16.169 13.108,29.277 29.277,29.277 v 0 c 16.169,0 29.277,-13.108 29.277,-29.277 v -12.882 c 0,16.169 -13.107,29.277 -29.277,29.277 z"/><path style="fill:#f1c8ce" id="path2579" d="m 2032.038,464.534 c 0,-20.878 -16.925,-37.803 -37.803,-37.803 -20.878,0 -37.803,16.925 -37.803,37.803 v 12.882 c 0,-20.878 16.925,-37.803 37.803,-37.803 20.878,0 37.803,16.925 37.803,37.803 z"/><path style="fill:#f1c8ce" id="path2581" d="m 2598.997,449.57 c 0,-12.614 -10.225,-22.84 -22.84,-22.84 -12.615,0 -22.84,10.226 -22.84,22.84 v 12.882 c 0,-12.614 10.225,-22.839 22.84,-22.839 12.615,0 22.84,10.225 22.84,22.839 z"/><path style="fill:#f1c8ce" id="path2583" d="m 2806.465,478.986 c 0,-28.86 -23.395,-52.255 -52.255,-52.255 -28.859,0 -52.255,23.395 -52.255,52.255 v 12.882 c 0,-28.86 23.396,-52.255 52.255,-52.255 28.86,0 52.255,23.395 52.255,52.255 z"/><path style="fill:#f1c8ce" id="path2585" d="m 2833.392,558.188 c -15.219,-0.717 -26.927,-13.827 -26.927,-29.062 v 12.882 c 0,15.236 11.708,28.346 26.927,29.062 16.249,0.765 29.664,-12.182 29.664,-28.263 v -12.882 c 0,16.08 -13.414,29.028 -29.664,28.263 z"/><path style="fill:#f1c8ce" id="path2587" d="m 2649.029,600.751 c -28.04,-0.769 -50.033,-24.48 -50.033,-52.53 v 12.882 c 0,28.051 21.993,51.761 50.033,52.53 29.092,0.798 52.926,-22.547 52.926,-51.459 v -12.882 c 0,28.912 -23.834,52.257 -52.926,51.459 z"/></g></g><g id="g2643" clip-path="url(#SVGID_00000013909468111042706110000005381801441477567154_)"><path style="opacity:.7;fill:#e5a3a1" id="path2619" d="m -31.765,220.785 v 173.02 59.321 63.582 c 0,16.169 13.108,29.277 29.277,29.277 v 0 c 16.169,0 29.277,-13.108 29.277,-29.277 v -25.779 c 0,-20.878 16.925,-37.803 37.803,-37.803 v 0 c 20.878,0 37.803,16.925 37.803,37.803 v 79.767 c 0,28.051 21.993,51.761 50.033,52.53 29.092,0.798 52.925,-22.547 52.925,-51.459 v -56.591 c 0,-34.269 27.781,-62.05 62.05,-62.05 v 0 c 34.269,0 62.05,27.781 62.05,62.05 v 11.413 c 0,15.236 11.709,28.346 26.928,29.062 16.249,0.765 29.663,-12.183 29.663,-28.263 v -28.115 c 0,-25.486 20.66,-46.146 46.146,-46.146 h 42.379 c 25.486,0 46.146,20.66 46.146,46.146 v 0 c 0,28.05 21.993,51.761 50.033,52.53 29.092,0.798 52.925,-22.547 52.925,-51.459 v -24.378 c 0,-12.614 10.226,-22.839 22.84,-22.839 v 0 c 12.614,0 22.84,10.226 22.84,22.839 v 98.651 c 0,28.05 21.993,51.761 50.033,52.53 29.092,0.797 52.925,-22.548 52.925,-51.459 V 505.38 c 0,-28.86 23.395,-52.255 52.255,-52.255 v 0 c 28.86,0 52.255,23.395 52.255,52.255 v 50.14 c 0,15.236 11.709,28.346 26.928,29.062 16.249,0.765 29.664,-12.183 29.664,-28.263 V 453.125 355.174 220.785 Z"/><path style="fill:#e5a3a1" id="path2621" d="m -31.765,207.272 v 173.02 59.321 63.582 c 0,16.169 13.108,29.277 29.277,29.277 v 0 c 16.169,0 29.277,-13.108 29.277,-29.277 v -25.779 c 0,-20.878 16.925,-37.803 37.803,-37.803 v 0 c 20.878,0 37.803,16.925 37.803,37.803 v 79.767 c 0,28.051 21.993,51.761 50.033,52.53 29.092,0.798 52.925,-22.547 52.925,-51.459 v -56.591 c 0,-34.269 27.781,-62.05 62.05,-62.05 v 0 c 34.269,0 62.05,27.781 62.05,62.05 v 11.413 c 0,15.236 11.709,28.346 26.928,29.062 16.249,0.765 29.663,-12.183 29.663,-28.263 V 485.76 c 0,-25.486 20.66,-46.146 46.146,-46.146 h 42.379 c 25.486,0 46.146,20.66 46.146,46.146 v 0 c 0,28.051 21.993,51.761 50.033,52.53 29.092,0.798 52.925,-22.547 52.925,-51.459 v -24.378 c 0,-12.614 10.226,-22.839 22.84,-22.839 v 0 c 12.614,0 22.84,10.226 22.84,22.839 v 98.651 c 0,28.05 21.993,51.761 50.033,52.53 29.092,0.797 52.925,-22.548 52.925,-51.459 v -70.306 c 0,-28.86 23.395,-52.255 52.255,-52.255 v 0 c 28.86,0 52.255,23.395 52.255,52.255 v 50.14 c 0,15.236 11.709,28.346 26.928,29.062 16.249,0.765 29.664,-12.183 29.664,-28.263 V 439.613 341.662 207.272 Z"/><g id="g2641"><path style="fill:#f1c8ce" id="path2623" d="m 356.381,529.256 c -15.219,-0.717 -26.928,-13.826 -26.928,-29.062 v -11.413 c 0,-34.269 -27.781,-62.05 -62.05,-62.05 v 0 c -34.269,0 -62.05,27.781 -62.05,62.05 v 12.882 c 0,-34.269 27.781,-62.05 62.05,-62.05 v 0 c 34.269,0 62.05,27.781 62.05,62.05 v 11.413 c 0,15.236 11.709,28.346 26.928,29.062 16.249,0.765 29.663,-12.183 29.663,-28.263 v -12.882 c 0,16.08 -13.414,29.028 -29.663,28.263 z"/><path style="fill:#f1c8ce" id="path2625" d="m 570.748,525.408 c -28.04,-0.769 -50.033,-24.48 -50.033,-52.53 v 0 c 0,-25.486 -20.66,-46.146 -46.146,-46.146 H 432.19 c -25.486,0 -46.146,20.661 -46.146,46.146 v 12.882 c 0,-25.486 20.661,-46.146 46.146,-46.146 h 42.379 c 25.486,0 46.146,20.66 46.146,46.146 v 0 c 0,28.051 21.993,51.761 50.033,52.53 29.091,0.798 52.925,-22.547 52.925,-51.459 v -12.882 c 10e-4,28.911 -23.833,52.256 -52.925,51.459 z"/><path style="fill:#f1c8ce" id="path2627" d="m 152.427,596.831 c -28.04,-0.769 -50.033,-24.48 -50.033,-52.53 v 12.882 c 0,28.051 21.993,51.761 50.033,52.53 29.092,0.798 52.925,-22.547 52.925,-51.459 v -12.882 c 0.001,28.911 -23.833,52.256 -52.925,51.459 z"/><path style="fill:#f1c8ce" id="path2629" d="m -2.488,519.59 v 0 c -16.17,0 -29.277,-13.108 -29.277,-29.277 v 12.882 c 0,16.169 13.108,29.277 29.277,29.277 v 0 c 16.169,0 29.277,-13.108 29.277,-29.277 v -12.882 c 0,16.169 -13.108,29.277 -29.277,29.277 z"/><path style="fill:#f1c8ce" id="path2631" d="m 102.395,464.534 c 0,-20.878 -16.925,-37.803 -37.803,-37.803 -20.878,0 -37.803,16.925 -37.803,37.803 v 12.882 c 0,-20.878 16.925,-37.803 37.803,-37.803 20.878,0 37.803,16.925 37.803,37.803 z"/><path style="fill:#f1c8ce" id="path2633" d="m 669.353,449.57 c 0,-12.614 -10.225,-22.84 -22.84,-22.84 -12.614,0 -22.84,10.226 -22.84,22.84 v 12.882 c 0,-12.614 10.225,-22.839 22.84,-22.839 12.614,0 22.84,10.225 22.84,22.839 z"/><path style="fill:#f1c8ce" id="path2635" d="m 876.822,478.986 c 0,-28.86 -23.395,-52.255 -52.255,-52.255 -28.859,0 -52.255,23.395 -52.255,52.255 v 12.882 c 0,-28.86 23.396,-52.255 52.255,-52.255 28.86,0 52.255,23.395 52.255,52.255 z"/><path style="fill:#f1c8ce" id="path2637" d="m 903.749,558.188 c -15.219,-0.717 -26.927,-13.827 -26.927,-29.062 v 12.882 c 0,15.236 11.708,28.346 26.927,29.062 16.249,0.765 29.664,-12.182 29.664,-28.263 v -12.882 c 0,16.08 -13.415,29.028 -29.664,28.263 z"/><path style="fill:#f1c8ce" id="path2639" d="m 719.386,600.751 c -28.04,-0.769 -50.033,-24.48 -50.033,-52.53 v 12.882 c 0,28.051 21.993,51.761 50.033,52.53 29.091,0.798 52.925,-22.547 52.925,-51.459 v -12.882 c 0,28.912 -23.834,52.257 -52.925,51.459 z"/></g></g><rect id="rect2645" x="927.736" y="355.689" style="fill:#e5a3a1" width="21.905" height="134.417" clip-path="url(#SVGID_00000013909468111042706110000005381801441477567154_)"/><rect id="rect2647" x="1889.608" y="353.365" style="fill:#e5a3a1" width="22.835" height="136.077" clip-path="url(#SVGID_00000013909468111042706110000005381801441477567154_)"/></g><rect id="rect2649" x="2853.564" y="353.365" style="fill:#d2597c" width="30.789" height="140.828" clip-path="url(#SVGID_00000013909468111042706110000005381801441477567154_)"/></g><rect x="-158.012" y="-21.764" style="fill:#e5a3a1;stroke-width:.27832" id="rect2653" width="717.419" height="105.134"/></g><g id="g3552"><path style="opacity:.42" id="path2661" d="M -9.041,-336.081 H 2762.54 v 749.669 c -545.177,12.639 -664.144,-61.403 -725.897,-43.029 -34.106,10.149 -57.487,41.478 -57.487,77.061 v 114.825 c 0,46.154 -37.416,83.57 -83.57,83.57 v 0 c -46.154,0 -83.57,-37.416 -83.57,-83.57 V 440.579 c 0,-33.204 -19.713,-63.278 -50.161,-76.524 -0.01,-0.004 -0.016,-0.007 -0.025,-0.011 -27.473,-11.953 -59.918,-6.461 -82.057,15.186 -14.656,14.33 -22.283,34.387 -22.283,54.884 v 2.683 c 0,46.154 -37.415,83.57 -83.57,83.57 v 0 c -46.155,0 -83.57,-37.416 -83.57,-83.57 v -98.413 c 0,-47.824 -37.279,-87.259 -85.017,-90.148 -61.194,-3.704 -132.47,-0.102 -219.69,13.784 -214.33,34.12 -347.58,131.244 -622.634,107.786 -50.727,-6.635 -83.123,-14.639 -572.05,-35.74 z" clip-path="url(#SVGID_00000065036029895482507690000013570039648581839288_)" transform="matrix(0.24283799,0,0,0.24283799,-115.49059,-6.2913533)"/><path style="fill:#f9b7b5" id="path2663" d="m 2762.539,-336.081 v 720.105 c -545.177,12.639 -645.666,-61.403 -707.419,-43.029 -34.106,10.149 -57.487,41.478 -57.487,77.062 v 114.825 c 0,46.155 -37.415,83.57 -83.57,83.57 v 0 c -46.154,0 -83.57,-37.415 -83.57,-83.57 V 411.015 c 0,-33.204 -19.713,-63.278 -50.161,-76.524 -0.01,-0.003 -0.016,-0.007 -0.024,-0.01 -27.473,-11.953 -59.919,-6.461 -82.058,15.186 -14.656,14.33 -22.283,34.387 -22.283,54.884 v 2.682 c 0,46.155 -37.415,83.57 -83.57,83.57 v 0 c -46.154,0 -83.57,-37.416 -83.57,-83.57 V 308.82 c 0,-47.824 -37.279,-87.259 -85.017,-90.148 -61.194,-3.703 -132.47,-0.102 -219.69,13.784 C 989.791,266.576 856.541,363.7 581.486,340.242 520.651,332.286 486.16,322.431 -9.042,290.279 v -626.36 z" clip-path="url(#SVGID_00000065036029895482507690000013570039648581839288_)" transform="matrix(0.24283799,0,0,0.24283799,-115.49059,-6.2913533)"/><path style="fill:#ffdede" id="path2665" d="m 2762.608,-336.081 v 690.54 c -83.304,12.639 -645.736,-61.404 -707.488,-43.029 -34.106,10.149 -57.487,41.478 -57.487,77.062 v 114.825 c 0,46.155 -37.415,83.57 -83.57,83.57 v 0 c -46.154,0 -83.57,-37.415 -83.57,-83.57 V 381.451 c 0,-33.204 -19.713,-63.278 -50.161,-76.524 -0.01,-0.003 -0.016,-0.007 -0.024,-0.01 -27.473,-11.953 -59.919,-6.461 -82.058,15.186 -14.656,14.33 -22.283,34.387 -22.283,54.884 v 2.682 c 0,46.155 -37.415,83.57 -83.57,83.57 v 0 c -46.154,0 -83.57,-37.416 -83.57,-83.57 v -98.413 c 0,-47.824 -37.279,-87.259 -85.017,-90.148 -61.194,-3.703 -132.47,-0.102 -219.69,13.784 C 989.792,237.013 856.542,334.137 581.487,310.679 520.652,302.723 486.161,292.868 -9.041,260.716 V -336.08 h 2771.649 z" clip-path="url(#SVGID_00000065036029895482507690000013570039648581839288_)" transform="matrix(0.24283799,0,0,0.24283799,-115.49059,-6.2913533)"/></g></g><g id="g2691" transform="matrix(1.0790618,0,0,1.0790618,-462.89248,246.56985)"><g id="g3668" transform="translate(-245.55936,-673.77185)"><g id="g3681" transform="matrix(0.79823219,-0.21388567,0.21388567,0.79823219,-29.975898,260.16982)"><g id="g2675"><path style="fill:#ece3b1;stroke:#1b1f23;stroke-width:7;stroke-linecap:round;stroke-linejoin:round;stroke-miterlimit:10" id="path2669" d="m 817.283,703.637 v 0 c -6.667,-3.886 -6.003,-10.807 -2.118,-17.473 l 29.39,-57.177 c 3.886,-6.666 12.52,-8.942 19.186,-5.056 v 0 c 6.666,3.886 8.941,12.52 5.056,19.186 l -35.268,53.75 c -3.884,6.668 -9.58,10.656 -16.246,6.77 z"/><g id="g2673"><circle style="fill:#ffdede;stroke:#1b1f23;stroke-width:7;stroke-linecap:round;stroke-linejoin:round;stroke-miterlimit:10" id="circle2671" cx="790.297" cy="755.864" r="76.749"/></g></g><g id="g2689"><g id="g2681"><path style="fill:#f9b7b5;stroke:#1b1f23;stroke-width:7;stroke-linecap:round;stroke-linejoin:round;stroke-miterlimit:10" id="path2677" d="m 876.181,853.361 -112.535,29.655 c -7.106,1.873 -14.453,-2.058 -16.84,-9.008 l -27.534,-80.201 151.524,-39.929 15.572,83.388 c 1.346,7.205 -3.099,14.227 -10.187,16.095 z"/><path style="fill:#e5a3a1;stroke:#1b1f23;stroke-width:7;stroke-linecap:round;stroke-linejoin:round;stroke-miterlimit:10" id="path2679" d="m 882.253,750.859 -174.437,45.967 c -1.156,0.305 -2.35,-0.392 -2.655,-1.547 l -4.199,-15.934 c -0.305,-1.156 0.392,-2.35 1.547,-2.655 l 174.437,-45.967 c 1.156,-0.305 2.35,0.392 2.655,1.547 l 4.199,15.934 c 0.305,1.156 -0.392,2.35 -1.547,2.655 z"/></g><g id="g2687"><path style="fill:#ffdede;stroke:#1b1f23;stroke-width:7;stroke-miterlimit:10" id="path2683" d="m 753.604,758.079 11.5,43.642 c 1.387,5.262 -1.784,10.702 -7.046,12.088 v 0 c -5.262,1.387 -10.702,-1.784 -12.088,-7.046 l -11.5,-43.642"/><path style="fill:#ffdede;stroke:#1b1f23;stroke-width:7;stroke-miterlimit:10" id="path2685" d="m 787.026,749.272 7.356,27.916 c 1.387,5.262 -1.784,10.702 -7.046,12.088 v 0 c -5.262,1.387 -10.702,-1.784 -12.088,-7.046 l -7.356,-27.916"/></g></g></g></g></g><g id="g2733" transform="translate(-1118.9642,21.801007)"><g id="g2731"><g id="g3696" transform="matrix(1.1614426,0,0,1.1614426,-597.3364,-689.20951)"><ellipse transform="matrix(0.2771,-0.9608,0.9608,0.2771,614.3865,2178.2407)" style="fill:#c9d4ff;stroke:#1b1f23;stroke-width:7;stroke-miterlimit:10" id="ellipse2711" cx="1754.835" cy="680.804" rx="34.017" ry="34.016"/><circle transform="matrix(0.2771,-0.9608,0.9608,0.2771,551.5175,2169.1484)" style="fill:#b4e3ad;stroke:#1b1f23;stroke-width:7;stroke-miterlimit:10" id="ellipse2713" cx="1717.359" cy="718.04" r="34.017"/><circle style="fill:#e2c0fc;stroke:#1b1f23;stroke-width:7;stroke-miterlimit:10" id="circle2715" cx="1762.197" cy="730.972" r="34.017"/><path style="fill:#fff7c5;stroke:#1b1f23;stroke-width:7;stroke-miterlimit:10" id="path2717" d="m 1766.585,773.325 -63.602,108.916 c -3.322,5.689 -11.751,3.258 -11.534,-3.327 l 4.169,-126.057 z"/><path style="fill:#ece3b1;stroke:#1b1f23;stroke-width:7;stroke-miterlimit:10" id="path2719" d="m 1766.706,775.299 -72.173,-20.816 c -3.742,-1.079 -5.921,-5.024 -4.842,-8.766 v 0 c 1.079,-3.742 5.024,-5.921 8.767,-4.842 l 72.173,20.816 c 3.742,1.079 5.921,5.025 4.841,8.767 v 0 c -1.079,3.741 -5.024,5.92 -8.766,4.841 z"/><g id="g2729"><path style="fill:#e5a3a1;stroke:#1b1f23;stroke-width:7;stroke-miterlimit:10" id="path2725" d="m 1777.61,650.294 c 4.578,-7.242 2.418,-16.824 -4.824,-21.403 -7.242,-4.578 -16.825,-2.418 -21.403,4.824 -4.578,7.242 -2.418,16.824 4.824,21.402 7.243,4.579 16.825,2.419 21.403,-4.823 z"/><path style="fill:none;stroke:#e5a3a1;stroke-width:7;stroke-linecap:round;stroke-linejoin:round;stroke-miterlimit:10" id="path2727" d="m 1771.54,634.225 c 0,0 5.213,-7.574 16.225,-6.048"/></g></g></g></g></svg>