<?xml version="1.0" encoding="UTF-8" standalone="no"?>
<!-- Generator: Adobe Illustrator 27.5.0, SVG Export Plug-In . SVG Version: 6.00 Build 0)  -->

<svg
   version="1.1"
   x="0px"
   y="0px"
   viewBox="0 0 400 400"
   xml:space="preserve"
   id="svg2845"
   sodipodi:docname="16129653_5721588.svg"
   width="400"
   height="400"
   inkscape:version="1.2.2 (b0a8486541, 2022-12-01)"
   inkscape:export-filename="16129653_5721588.png"
   inkscape:export-xdpi="96"
   inkscape:export-ydpi="96"
   xmlns:inkscape="http://www.inkscape.org/namespaces/inkscape"
   xmlns:sodipodi="http://sodipodi.sourceforge.net/DTD/sodipodi-0.dtd"
   xmlns:xlink="http://www.w3.org/1999/xlink"
   xmlns="http://www.w3.org/2000/svg"
   xmlns:svg="http://www.w3.org/2000/svg"><defs
   id="defs2849">
	
	
	
	
	
	
	
	
	
	

		<defs
   id="defs2656">
			
				<rect
   id="SVGID_00000163058692944689741200000006244473122847745664_"
   x="-9.1850004"
   y="-10"
   transform="rotate(180,1280.0003,332.50865)"
   width="2578.3721"
   height="685.01703" />
		</defs>
		<clipPath
   id="SVGID_00000065036029895482507690000013570039648581839288_">
			<use
   xlink:href="#SVGID_00000163058692944689741200000006244473122847745664_"
   style="overflow:visible"
   id="use2658" />
		</clipPath>
		
		
		
	</defs><sodipodi:namedview
   id="namedview2847"
   pagecolor="#505050"
   bordercolor="#ffffff"
   borderopacity="1"
   inkscape:showpageshadow="0"
   inkscape:pageopacity="0"
   inkscape:pagecheckerboard="1"
   inkscape:deskcolor="#505050"
   showgrid="false"
   inkscape:zoom="0.52247334"
   inkscape:cx="-189.48335"
   inkscape:cy="275.61215"
   inkscape:window-width="1346"
   inkscape:window-height="684"
   inkscape:window-x="10"
   inkscape:window-y="40"
   inkscape:window-maximized="1"
   inkscape:current-layer="svg2845" />
<rect
   style="fill:#a3cbe7;stroke:#000000"
   id="rect3623"
   width="631.90863"
   height="545.83978"
   x="-116.81107"
   y="-85.70118" />
<g
   id="g3621"
   transform="matrix(1.2820265,-1.0665917,1.0665917,1.2820265,-353.44174,303.79733)"><g
     id="g3481"
     transform="translate(0.6576945,13.129652)"><g
       id="g2651"
       transform="matrix(0.27831955,0,0,0.27831955,-147.31561,92.161889)">
		<defs
   id="defs2536">
			
				<rect
   id="SVGID_00000076571260616704523350000016317467122434384024_"
   x="-8.1789999"
   y="354.05701"
   width="2577.365"
   height="321.57901" />
		</defs>
		<clipPath
   id="SVGID_00000013909468111042706110000005381801441477567154_">
			<use
   xlink:href="#SVGID_00000076571260616704523350000016317467122434384024_"
   style="overflow:visible"
   id="use2538" />
		</clipPath>
		
		
		<g
   clip-path="url(#SVGID_00000013909468111042706110000005381801441477567154_)"
   id="g2617">
			<path
   style="opacity:0.7;fill:#7a5432"
   d="m 2863.056,220.785 v 173.02 59.321 63.582 c 0,16.169 13.108,29.277 29.277,29.277 v 0 c 16.169,0 29.277,-13.108 29.277,-29.277 v -25.779 c 0,-20.878 16.925,-37.803 37.803,-37.803 v 0 c 20.878,0 37.803,16.925 37.803,37.803 v 79.767 c 0,28.051 21.993,51.761 50.033,52.53 29.092,0.798 52.926,-22.547 52.926,-51.459 v -56.591 c 0,-34.269 27.781,-62.05 62.05,-62.05 v 0 c 34.269,0 62.05,27.781 62.05,62.05 v 11.413 c 0,15.236 11.709,28.346 26.928,29.062 16.249,0.765 29.664,-12.183 29.664,-28.263 v -28.115 c 0,-25.486 20.66,-46.146 46.146,-46.146 h 42.379 c 25.486,0 46.146,20.66 46.146,46.146 v 0 c 0,28.05 21.993,51.761 50.033,52.53 29.092,0.798 52.925,-22.547 52.925,-51.459 v -24.378 c 0,-12.614 10.226,-22.839 22.84,-22.839 v 0 c 12.614,0 22.84,10.226 22.84,22.839 v 98.651 c 0,28.05 21.993,51.761 50.033,52.53 29.092,0.797 52.926,-22.548 52.926,-51.459 V 505.38 c 0,-28.86 23.396,-52.255 52.255,-52.255 v 0 c 28.86,0 52.255,23.395 52.255,52.255 v 50.14 c 0,15.236 11.708,28.346 26.927,29.062 16.249,0.765 29.664,-12.183 29.664,-28.263 V 453.125 355.174 220.785 Z"
   id="path2593" />
			<path
   style="fill:#d2597c"
   d="m 2863.056,207.272 v 173.02 59.321 63.582 c 0,16.169 13.108,29.277 29.277,29.277 v 0 c 16.169,0 29.277,-13.108 29.277,-29.277 v -25.779 c 0,-20.878 16.925,-37.803 37.803,-37.803 v 0 c 20.878,0 37.803,16.925 37.803,37.803 v 79.767 c 0,28.051 21.993,51.761 50.033,52.53 29.092,0.798 52.926,-22.547 52.926,-51.459 v -56.591 c 0,-34.269 27.781,-62.05 62.05,-62.05 v 0 c 34.269,0 62.05,27.781 62.05,62.05 v 11.413 c 0,15.236 11.709,28.346 26.928,29.062 16.249,0.765 29.664,-12.183 29.664,-28.263 V 485.76 c 0,-25.486 20.66,-46.146 46.146,-46.146 h 42.379 c 25.486,0 46.146,20.66 46.146,46.146 v 0 c 0,28.051 21.993,51.761 50.033,52.53 29.092,0.798 52.925,-22.547 52.925,-51.459 v -24.378 c 0,-12.614 10.226,-22.839 22.84,-22.839 v 0 c 12.614,0 22.84,10.226 22.84,22.839 v 98.651 c 0,28.05 21.993,51.761 50.033,52.53 29.092,0.797 52.926,-22.548 52.926,-51.459 v -70.306 c 0,-28.86 23.396,-52.255 52.255,-52.255 v 0 c 28.86,0 52.255,23.395 52.255,52.255 v 50.14 c 0,15.236 11.708,28.346 26.927,29.062 16.249,0.765 29.664,-12.183 29.664,-28.263 V 439.613 341.662 207.272 Z"
   id="path2595" />
			<g
   id="g2615">
				<path
   style="fill:#f1c8ce"
   d="m 3251.202,529.256 c -15.219,-0.717 -26.928,-13.826 -26.928,-29.062 v -11.413 c 0,-34.269 -27.781,-62.05 -62.05,-62.05 v 0 c -34.269,0 -62.05,27.781 -62.05,62.05 v 12.882 c 0,-34.269 27.781,-62.05 62.05,-62.05 v 0 c 34.269,0 62.05,27.781 62.05,62.05 v 11.413 c 0,15.236 11.709,28.346 26.928,29.062 16.249,0.765 29.664,-12.183 29.664,-28.263 v -12.882 c 0,16.08 -13.415,29.028 -29.664,28.263 z"
   id="path2597" />
				<path
   style="fill:#f1c8ce"
   d="m 3465.57,525.408 c -28.04,-0.769 -50.033,-24.48 -50.033,-52.53 v 0 c 0,-25.486 -20.66,-46.146 -46.146,-46.146 h -42.379 c -25.486,0 -46.146,20.661 -46.146,46.146 v 12.882 c 0,-25.486 20.661,-46.146 46.146,-46.146 h 42.379 c 25.486,0 46.146,20.66 46.146,46.146 v 0 c 0,28.051 21.993,51.761 50.033,52.53 29.091,0.798 52.925,-22.547 52.925,-51.459 v -12.882 c 0,28.911 -23.834,52.256 -52.925,51.459 z"
   id="path2599" />
				<path
   style="fill:#f1c8ce"
   d="m 3047.249,596.831 c -28.04,-0.769 -50.033,-24.48 -50.033,-52.53 v 12.882 c 0,28.051 21.993,51.761 50.033,52.53 29.092,0.798 52.926,-22.547 52.926,-51.459 v -12.882 c 0,28.911 -23.835,52.256 -52.926,51.459 z"
   id="path2601" />
				<path
   style="fill:#f1c8ce"
   d="m 2892.333,519.59 v 0 c -16.17,0 -29.277,-13.108 -29.277,-29.277 v 12.882 c 0,16.169 13.107,29.277 29.277,29.277 v 0 c 16.169,0 29.277,-13.108 29.277,-29.277 v -12.882 c 0,16.169 -13.108,29.277 -29.277,29.277 z"
   id="path2603" />
				<path
   style="fill:#f1c8ce"
   d="m 2997.216,464.534 c 0,-20.878 -16.925,-37.803 -37.803,-37.803 -20.878,0 -37.803,16.925 -37.803,37.803 v 12.882 c 0,-20.878 16.925,-37.803 37.803,-37.803 20.878,0 37.803,16.925 37.803,37.803 z"
   id="path2605" />
				<path
   style="fill:#f1c8ce"
   d="m 3564.174,449.57 c 0,-12.614 -10.225,-22.84 -22.84,-22.84 -12.615,0 -22.84,10.226 -22.84,22.84 v 12.882 c 0,-12.614 10.225,-22.839 22.84,-22.839 12.615,0 22.84,10.225 22.84,22.839 z"
   id="path2607" />
				<path
   style="fill:#f1c8ce"
   d="m 3771.643,478.986 c 0,-28.86 -23.395,-52.255 -52.255,-52.255 -28.859,0 -52.255,23.395 -52.255,52.255 v 12.882 c 0,-28.86 23.396,-52.255 52.255,-52.255 28.86,0 52.255,23.395 52.255,52.255 z"
   id="path2609" />
				<path
   style="fill:#f1c8ce"
   d="m 3798.57,558.188 c -15.219,-0.717 -26.927,-13.827 -26.927,-29.062 v 12.882 c 0,15.236 11.708,28.346 26.927,29.062 16.249,0.765 29.664,-12.182 29.664,-28.263 v -12.882 c 0,16.08 -13.414,29.028 -29.664,28.263 z"
   id="path2611" />
				<path
   style="fill:#f1c8ce"
   d="m 3614.207,600.751 c -28.04,-0.769 -50.033,-24.48 -50.033,-52.53 v 12.882 c 0,28.051 21.993,51.761 50.033,52.53 29.092,0.798 52.926,-22.547 52.926,-51.459 v -12.882 c 0,28.912 -23.834,52.257 -52.926,51.459 z"
   id="path2613" />
			</g>
		</g>
		
		
			
		
			<g
   id="g3330"
   transform="translate(-30.376419,-389.04427)"><g
     clip-path="url(#SVGID_00000013909468111042706110000005381801441477567154_)"
     id="g2565">
			<path
   style="opacity:0.7;fill:#e5a3a1"
   d="m 933.519,220.785 v 173.02 59.321 63.582 c 0,16.169 13.108,29.277 29.277,29.277 v 0 c 16.169,0 29.277,-13.108 29.277,-29.277 v -25.779 c 0,-20.878 16.925,-37.803 37.803,-37.803 v 0 c 20.878,0 37.803,16.925 37.803,37.803 v 79.767 c 0,28.051 21.993,51.761 50.033,52.53 29.092,0.798 52.926,-22.547 52.926,-51.459 v -56.591 c 0,-34.269 27.781,-62.05 62.05,-62.05 v 0 c 34.269,0 62.05,27.781 62.05,62.05 v 11.413 c 0,15.236 11.709,28.346 26.928,29.062 16.249,0.765 29.663,-12.183 29.663,-28.263 v -28.115 c 0,-25.486 20.661,-46.146 46.146,-46.146 h 42.379 c 25.486,0 46.146,20.66 46.146,46.146 v 0 c 0,28.05 21.993,51.761 50.033,52.53 29.092,0.798 52.925,-22.547 52.925,-51.459 v -24.378 c 0,-12.614 10.226,-22.839 22.84,-22.839 v 0 c 12.614,0 22.84,10.226 22.84,22.839 v 98.651 c 0,28.05 21.993,51.761 50.033,52.53 29.092,0.797 52.926,-22.548 52.926,-51.459 V 505.38 c 0,-28.86 23.395,-52.255 52.255,-52.255 v 0 c 28.86,0 52.255,23.395 52.255,52.255 v 50.14 c 0,15.236 11.709,28.346 26.928,29.062 16.249,0.765 29.664,-12.183 29.664,-28.263 V 453.125 355.174 220.785 Z"
   id="path2541" />
			<path
   style="fill:#e5a3a1"
   d="m 933.519,207.272 v 173.02 59.321 63.582 c 0,16.169 13.108,29.277 29.277,29.277 v 0 c 16.169,0 29.277,-13.108 29.277,-29.277 v -25.779 c 0,-20.878 16.925,-37.803 37.803,-37.803 v 0 c 20.878,0 37.803,16.925 37.803,37.803 v 79.767 c 0,28.051 21.993,51.761 50.033,52.53 29.092,0.798 52.926,-22.547 52.926,-51.459 v -56.591 c 0,-34.269 27.781,-62.05 62.05,-62.05 v 0 c 34.269,0 62.05,27.781 62.05,62.05 v 11.413 c 0,15.236 11.709,28.346 26.928,29.062 16.249,0.765 29.663,-12.183 29.663,-28.263 V 485.76 c 0,-25.486 20.661,-46.146 46.146,-46.146 h 42.379 c 25.486,0 46.146,20.66 46.146,46.146 v 0 c 0,28.051 21.993,51.761 50.033,52.53 29.092,0.798 52.925,-22.547 52.925,-51.459 v -24.378 c 0,-12.614 10.226,-22.839 22.84,-22.839 v 0 c 12.614,0 22.84,10.226 22.84,22.839 v 98.651 c 0,28.05 21.993,51.761 50.033,52.53 29.092,0.797 52.926,-22.548 52.926,-51.459 v -70.306 c 0,-28.86 23.395,-52.255 52.255,-52.255 v 0 c 28.86,0 52.255,23.395 52.255,52.255 v 50.14 c 0,15.236 11.709,28.346 26.928,29.062 16.249,0.765 29.664,-12.183 29.664,-28.263 V 439.613 341.662 207.272 Z"
   id="path2543" />
			<g
   id="g2563">
				<path
   style="fill:#f1c8ce"
   d="m 1321.665,529.256 c -15.219,-0.717 -26.928,-13.826 -26.928,-29.062 v -11.413 c 0,-34.269 -27.781,-62.05 -62.05,-62.05 v 0 c -34.269,0 -62.05,27.781 -62.05,62.05 v 12.882 c 0,-34.269 27.781,-62.05 62.05,-62.05 v 0 c 34.269,0 62.05,27.781 62.05,62.05 v 11.413 c 0,15.236 11.709,28.346 26.928,29.062 16.249,0.765 29.663,-12.183 29.663,-28.263 v -12.882 c 0,16.08 -13.414,29.028 -29.663,28.263 z"
   id="path2545" />
				<path
   style="fill:#f1c8ce"
   d="M 1536.033,525.408 C 1507.993,524.639 1486,500.928 1486,472.878 v 0 c 0,-25.486 -20.66,-46.146 -46.146,-46.146 h -42.379 c -25.486,0 -46.146,20.661 -46.146,46.146 v 12.882 c 0,-25.486 20.661,-46.146 46.146,-46.146 h 42.379 c 25.486,0 46.146,20.66 46.146,46.146 v 0 c 0,28.051 21.993,51.761 50.033,52.53 29.091,0.798 52.925,-22.547 52.925,-51.459 v -12.882 c 0,28.911 -23.834,52.256 -52.925,51.459 z"
   id="path2547" />
				<path
   style="fill:#f1c8ce"
   d="m 1117.712,596.831 c -28.04,-0.769 -50.033,-24.48 -50.033,-52.53 v 12.882 c 0,28.051 21.993,51.761 50.033,52.53 29.092,0.798 52.926,-22.547 52.926,-51.459 v -12.882 c -10e-4,28.911 -23.835,52.256 -52.926,51.459 z"
   id="path2549" />
				<path
   style="fill:#f1c8ce"
   d="m 962.796,519.59 v 0 c -16.17,0 -29.277,-13.108 -29.277,-29.277 v 12.882 c 0,16.169 13.108,29.277 29.277,29.277 v 0 c 16.169,0 29.277,-13.108 29.277,-29.277 v -12.882 c 0,16.169 -13.107,29.277 -29.277,29.277 z"
   id="path2551" />
				<path
   style="fill:#f1c8ce"
   d="m 1067.679,464.534 c 0,-20.878 -16.925,-37.803 -37.803,-37.803 -20.878,0 -37.803,16.925 -37.803,37.803 v 12.882 c 0,-20.878 16.925,-37.803 37.803,-37.803 20.878,0 37.803,16.925 37.803,37.803 z"
   id="path2553" />
				<path
   style="fill:#f1c8ce"
   d="m 1634.638,449.57 c 0,-12.614 -10.225,-22.84 -22.84,-22.84 -12.615,0 -22.84,10.226 -22.84,22.84 v 12.882 c 0,-12.614 10.225,-22.839 22.84,-22.839 12.615,0 22.84,10.225 22.84,22.839 z"
   id="path2555" />
				<path
   style="fill:#f1c8ce"
   d="m 1842.106,478.986 c 0,-28.86 -23.395,-52.255 -52.255,-52.255 -28.859,0 -52.255,23.395 -52.255,52.255 v 12.882 c 0,-28.86 23.396,-52.255 52.255,-52.255 28.86,0 52.255,23.395 52.255,52.255 z"
   id="path2557" />
				<path
   style="fill:#f1c8ce"
   d="m 1869.033,558.188 c -15.219,-0.717 -26.927,-13.827 -26.927,-29.062 v 12.882 c 0,15.236 11.708,28.346 26.927,29.062 16.249,0.765 29.664,-12.182 29.664,-28.263 v -12.882 c 0,16.08 -13.414,29.028 -29.664,28.263 z"
   id="path2559" />
				<path
   style="fill:#f1c8ce"
   d="m 1684.67,600.751 c -28.04,-0.769 -50.033,-24.48 -50.033,-52.53 v 12.882 c 0,28.051 21.993,51.761 50.033,52.53 29.092,0.798 52.926,-22.547 52.926,-51.459 v -12.882 c 0,28.912 -23.834,52.257 -52.926,51.459 z"
   id="path2561" />
			</g>
		</g><g
     clip-path="url(#SVGID_00000013909468111042706110000005381801441477567154_)"
     id="g2591">
			<path
   style="opacity:0.7;fill:#e5a3a1"
   d="m 1897.878,220.785 v 173.02 59.321 63.582 c 0,16.169 13.108,29.277 29.277,29.277 v 0 c 16.169,0 29.277,-13.108 29.277,-29.277 v -25.779 c 0,-20.878 16.925,-37.803 37.803,-37.803 v 0 c 20.878,0 37.803,16.925 37.803,37.803 v 79.767 c 0,28.051 21.993,51.761 50.033,52.53 29.092,0.798 52.926,-22.547 52.926,-51.459 v -56.591 c 0,-34.269 27.781,-62.05 62.05,-62.05 v 0 c 34.269,0 62.05,27.781 62.05,62.05 v 11.413 c 0,15.236 11.709,28.346 26.928,29.062 16.249,0.765 29.663,-12.183 29.663,-28.263 v -28.115 c 0,-25.486 20.661,-46.146 46.146,-46.146 h 42.379 c 25.486,0 46.146,20.66 46.146,46.146 v 0 c 0,28.05 21.993,51.761 50.033,52.53 29.092,0.798 52.926,-22.547 52.926,-51.459 v -24.378 c 0,-12.614 10.226,-22.839 22.84,-22.839 v 0 c 12.614,0 22.84,10.226 22.84,22.839 v 98.651 c 0,28.05 21.993,51.761 50.033,52.53 29.092,0.797 52.926,-22.548 52.926,-51.459 V 505.38 c 0,-28.86 23.395,-52.255 52.255,-52.255 v 0 c 28.86,0 52.255,23.395 52.255,52.255 v 50.14 c 0,15.236 11.708,28.346 26.927,29.062 16.249,0.765 29.664,-12.183 29.664,-28.263 V 453.125 355.174 220.785 Z"
   id="path2567" />
			<path
   style="fill:#e5a3a1"
   d="m 1897.878,207.272 v 173.02 59.321 63.582 c 0,16.169 13.108,29.277 29.277,29.277 v 0 c 16.169,0 29.277,-13.108 29.277,-29.277 v -25.779 c 0,-20.878 16.925,-37.803 37.803,-37.803 v 0 c 20.878,0 37.803,16.925 37.803,37.803 v 79.767 c 0,28.051 21.993,51.761 50.033,52.53 29.092,0.798 52.926,-22.547 52.926,-51.459 v -56.591 c 0,-34.269 27.781,-62.05 62.05,-62.05 v 0 c 34.269,0 62.05,27.781 62.05,62.05 v 11.413 c 0,15.236 11.709,28.346 26.928,29.062 16.249,0.765 29.663,-12.183 29.663,-28.263 V 485.76 c 0,-25.486 20.661,-46.146 46.146,-46.146 h 42.379 c 25.486,0 46.146,20.66 46.146,46.146 v 0 c 0,28.051 21.993,51.761 50.033,52.53 29.092,0.798 52.926,-22.547 52.926,-51.459 v -24.378 c 0,-12.614 10.226,-22.839 22.84,-22.839 v 0 c 12.614,0 22.84,10.226 22.84,22.839 v 98.651 c 0,28.05 21.993,51.761 50.033,52.53 29.092,0.797 52.926,-22.548 52.926,-51.459 v -70.306 c 0,-28.86 23.395,-52.255 52.255,-52.255 v 0 c 28.86,0 52.255,23.395 52.255,52.255 v 50.14 c 0,15.236 11.708,28.346 26.927,29.062 16.249,0.765 29.664,-12.183 29.664,-28.263 V 439.613 341.662 207.272 Z"
   id="path2569" />
			<g
   id="g2589">
				<path
   style="fill:#f1c8ce"
   d="m 2286.024,529.256 c -15.219,-0.717 -26.928,-13.826 -26.928,-29.062 v -11.413 c 0,-34.269 -27.781,-62.05 -62.05,-62.05 v 0 c -34.269,0 -62.05,27.781 -62.05,62.05 v 12.882 c 0,-34.269 27.781,-62.05 62.05,-62.05 v 0 c 34.269,0 62.05,27.781 62.05,62.05 v 11.413 c 0,15.236 11.709,28.346 26.928,29.062 16.249,0.765 29.663,-12.183 29.663,-28.263 v -12.882 c 0,16.08 -13.414,29.028 -29.663,28.263 z"
   id="path2571" />
				<path
   style="fill:#f1c8ce"
   d="m 2500.392,525.408 c -28.04,-0.769 -50.033,-24.48 -50.033,-52.53 v 0 c 0,-25.486 -20.66,-46.146 -46.146,-46.146 h -42.379 c -25.486,0 -46.146,20.661 -46.146,46.146 v 12.882 c 0,-25.486 20.661,-46.146 46.146,-46.146 h 42.379 c 25.486,0 46.146,20.66 46.146,46.146 v 0 c 0,28.051 21.993,51.761 50.033,52.53 29.092,0.798 52.926,-22.547 52.926,-51.459 v -12.882 c 0,28.911 -23.835,52.256 -52.926,51.459 z"
   id="path2573" />
				<path
   style="fill:#f1c8ce"
   d="m 2082.071,596.831 c -28.04,-0.769 -50.033,-24.48 -50.033,-52.53 v 12.882 c 0,28.051 21.993,51.761 50.033,52.53 29.092,0.798 52.926,-22.547 52.926,-51.459 v -12.882 c -10e-4,28.911 -23.835,52.256 -52.926,51.459 z"
   id="path2575" />
				<path
   style="fill:#f1c8ce"
   d="m 1927.155,519.59 v 0 c -16.17,0 -29.277,-13.108 -29.277,-29.277 v 12.882 c 0,16.169 13.108,29.277 29.277,29.277 v 0 c 16.169,0 29.277,-13.108 29.277,-29.277 v -12.882 c 0,16.169 -13.107,29.277 -29.277,29.277 z"
   id="path2577" />
				<path
   style="fill:#f1c8ce"
   d="m 2032.038,464.534 c 0,-20.878 -16.925,-37.803 -37.803,-37.803 -20.878,0 -37.803,16.925 -37.803,37.803 v 12.882 c 0,-20.878 16.925,-37.803 37.803,-37.803 20.878,0 37.803,16.925 37.803,37.803 z"
   id="path2579" />
				<path
   style="fill:#f1c8ce"
   d="m 2598.997,449.57 c 0,-12.614 -10.225,-22.84 -22.84,-22.84 -12.615,0 -22.84,10.226 -22.84,22.84 v 12.882 c 0,-12.614 10.225,-22.839 22.84,-22.839 12.615,0 22.84,10.225 22.84,22.839 z"
   id="path2581" />
				<path
   style="fill:#f1c8ce"
   d="m 2806.465,478.986 c 0,-28.86 -23.395,-52.255 -52.255,-52.255 -28.859,0 -52.255,23.395 -52.255,52.255 v 12.882 c 0,-28.86 23.396,-52.255 52.255,-52.255 28.86,0 52.255,23.395 52.255,52.255 z"
   id="path2583" />
				<path
   style="fill:#f1c8ce"
   d="m 2833.392,558.188 c -15.219,-0.717 -26.927,-13.827 -26.927,-29.062 v 12.882 c 0,15.236 11.708,28.346 26.927,29.062 16.249,0.765 29.664,-12.182 29.664,-28.263 v -12.882 c 0,16.08 -13.414,29.028 -29.664,28.263 z"
   id="path2585" />
				<path
   style="fill:#f1c8ce"
   d="m 2649.029,600.751 c -28.04,-0.769 -50.033,-24.48 -50.033,-52.53 v 12.882 c 0,28.051 21.993,51.761 50.033,52.53 29.092,0.798 52.926,-22.547 52.926,-51.459 v -12.882 c 0,28.912 -23.834,52.257 -52.926,51.459 z"
   id="path2587" />
			</g>
		</g><g
     clip-path="url(#SVGID_00000013909468111042706110000005381801441477567154_)"
     id="g2643">
			<path
   style="opacity:0.7;fill:#e5a3a1"
   d="m -31.765,220.785 v 173.02 59.321 63.582 c 0,16.169 13.108,29.277 29.277,29.277 v 0 c 16.169,0 29.277,-13.108 29.277,-29.277 v -25.779 c 0,-20.878 16.925,-37.803 37.803,-37.803 v 0 c 20.878,0 37.803,16.925 37.803,37.803 v 79.767 c 0,28.051 21.993,51.761 50.033,52.53 29.092,0.798 52.925,-22.547 52.925,-51.459 v -56.591 c 0,-34.269 27.781,-62.05 62.05,-62.05 v 0 c 34.269,0 62.05,27.781 62.05,62.05 v 11.413 c 0,15.236 11.709,28.346 26.928,29.062 16.249,0.765 29.663,-12.183 29.663,-28.263 v -28.115 c 0,-25.486 20.66,-46.146 46.146,-46.146 h 42.379 c 25.486,0 46.146,20.66 46.146,46.146 v 0 c 0,28.05 21.993,51.761 50.033,52.53 29.092,0.798 52.925,-22.547 52.925,-51.459 v -24.378 c 0,-12.614 10.226,-22.839 22.84,-22.839 v 0 c 12.614,0 22.84,10.226 22.84,22.839 v 98.651 c 0,28.05 21.993,51.761 50.033,52.53 29.092,0.797 52.925,-22.548 52.925,-51.459 V 505.38 c 0,-28.86 23.395,-52.255 52.255,-52.255 v 0 c 28.86,0 52.255,23.395 52.255,52.255 v 50.14 c 0,15.236 11.709,28.346 26.928,29.062 16.249,0.765 29.664,-12.183 29.664,-28.263 V 453.125 355.174 220.785 Z"
   id="path2619" />
			<path
   style="fill:#e5a3a1"
   d="m -31.765,207.272 v 173.02 59.321 63.582 c 0,16.169 13.108,29.277 29.277,29.277 v 0 c 16.169,0 29.277,-13.108 29.277,-29.277 v -25.779 c 0,-20.878 16.925,-37.803 37.803,-37.803 v 0 c 20.878,0 37.803,16.925 37.803,37.803 v 79.767 c 0,28.051 21.993,51.761 50.033,52.53 29.092,0.798 52.925,-22.547 52.925,-51.459 v -56.591 c 0,-34.269 27.781,-62.05 62.05,-62.05 v 0 c 34.269,0 62.05,27.781 62.05,62.05 v 11.413 c 0,15.236 11.709,28.346 26.928,29.062 16.249,0.765 29.663,-12.183 29.663,-28.263 V 485.76 c 0,-25.486 20.66,-46.146 46.146,-46.146 h 42.379 c 25.486,0 46.146,20.66 46.146,46.146 v 0 c 0,28.051 21.993,51.761 50.033,52.53 29.092,0.798 52.925,-22.547 52.925,-51.459 v -24.378 c 0,-12.614 10.226,-22.839 22.84,-22.839 v 0 c 12.614,0 22.84,10.226 22.84,22.839 v 98.651 c 0,28.05 21.993,51.761 50.033,52.53 29.092,0.797 52.925,-22.548 52.925,-51.459 v -70.306 c 0,-28.86 23.395,-52.255 52.255,-52.255 v 0 c 28.86,0 52.255,23.395 52.255,52.255 v 50.14 c 0,15.236 11.709,28.346 26.928,29.062 16.249,0.765 29.664,-12.183 29.664,-28.263 V 439.613 341.662 207.272 Z"
   id="path2621" />
			<g
   id="g2641">
				<path
   style="fill:#f1c8ce"
   d="m 356.381,529.256 c -15.219,-0.717 -26.928,-13.826 -26.928,-29.062 v -11.413 c 0,-34.269 -27.781,-62.05 -62.05,-62.05 v 0 c -34.269,0 -62.05,27.781 -62.05,62.05 v 12.882 c 0,-34.269 27.781,-62.05 62.05,-62.05 v 0 c 34.269,0 62.05,27.781 62.05,62.05 v 11.413 c 0,15.236 11.709,28.346 26.928,29.062 16.249,0.765 29.663,-12.183 29.663,-28.263 v -12.882 c 0,16.08 -13.414,29.028 -29.663,28.263 z"
   id="path2623" />
				<path
   style="fill:#f1c8ce"
   d="m 570.748,525.408 c -28.04,-0.769 -50.033,-24.48 -50.033,-52.53 v 0 c 0,-25.486 -20.66,-46.146 -46.146,-46.146 H 432.19 c -25.486,0 -46.146,20.661 -46.146,46.146 v 12.882 c 0,-25.486 20.661,-46.146 46.146,-46.146 h 42.379 c 25.486,0 46.146,20.66 46.146,46.146 v 0 c 0,28.051 21.993,51.761 50.033,52.53 29.091,0.798 52.925,-22.547 52.925,-51.459 v -12.882 c 10e-4,28.911 -23.833,52.256 -52.925,51.459 z"
   id="path2625" />
				<path
   style="fill:#f1c8ce"
   d="m 152.427,596.831 c -28.04,-0.769 -50.033,-24.48 -50.033,-52.53 v 12.882 c 0,28.051 21.993,51.761 50.033,52.53 29.092,0.798 52.925,-22.547 52.925,-51.459 v -12.882 c 0.001,28.911 -23.833,52.256 -52.925,51.459 z"
   id="path2627" />
				<path
   style="fill:#f1c8ce"
   d="m -2.488,519.59 v 0 c -16.17,0 -29.277,-13.108 -29.277,-29.277 v 12.882 c 0,16.169 13.108,29.277 29.277,29.277 v 0 c 16.169,0 29.277,-13.108 29.277,-29.277 v -12.882 c 0,16.169 -13.108,29.277 -29.277,29.277 z"
   id="path2629" />
				<path
   style="fill:#f1c8ce"
   d="m 102.395,464.534 c 0,-20.878 -16.925,-37.803 -37.803,-37.803 -20.878,0 -37.803,16.925 -37.803,37.803 v 12.882 c 0,-20.878 16.925,-37.803 37.803,-37.803 20.878,0 37.803,16.925 37.803,37.803 z"
   id="path2631" />
				<path
   style="fill:#f1c8ce"
   d="m 669.353,449.57 c 0,-12.614 -10.225,-22.84 -22.84,-22.84 -12.614,0 -22.84,10.226 -22.84,22.84 v 12.882 c 0,-12.614 10.225,-22.839 22.84,-22.839 12.614,0 22.84,10.225 22.84,22.839 z"
   id="path2633" />
				<path
   style="fill:#f1c8ce"
   d="m 876.822,478.986 c 0,-28.86 -23.395,-52.255 -52.255,-52.255 -28.859,0 -52.255,23.395 -52.255,52.255 v 12.882 c 0,-28.86 23.396,-52.255 52.255,-52.255 28.86,0 52.255,23.395 52.255,52.255 z"
   id="path2635" />
				<path
   style="fill:#f1c8ce"
   d="m 903.749,558.188 c -15.219,-0.717 -26.927,-13.827 -26.927,-29.062 v 12.882 c 0,15.236 11.708,28.346 26.927,29.062 16.249,0.765 29.664,-12.182 29.664,-28.263 v -12.882 c 0,16.08 -13.415,29.028 -29.664,28.263 z"
   id="path2637" />
				<path
   style="fill:#f1c8ce"
   d="m 719.386,600.751 c -28.04,-0.769 -50.033,-24.48 -50.033,-52.53 v 12.882 c 0,28.051 21.993,51.761 50.033,52.53 29.091,0.798 52.925,-22.547 52.925,-51.459 v -12.882 c 0,28.912 -23.834,52.257 -52.925,51.459 z"
   id="path2639" />
			</g>
		</g><rect
     x="927.73602"
     y="355.689"
     style="fill:#e5a3a1"
     width="21.905001"
     height="134.41701"
     clip-path="url(#SVGID_00000013909468111042706110000005381801441477567154_)"
     id="rect2645" /><rect
     x="1889.608"
     y="353.36499"
     style="fill:#e5a3a1"
     width="22.834999"
     height="136.077"
     clip-path="url(#SVGID_00000013909468111042706110000005381801441477567154_)"
     id="rect2647" /></g>
		
			<rect
   x="2853.564"
   y="353.36499"
   style="fill:#d2597c"
   width="30.789"
   height="140.828"
   clip-path="url(#SVGID_00000013909468111042706110000005381801441477567154_)"
   id="rect2649" />
	</g><rect
       x="-158.01161"
       y="-21.763546"
       style="fill:#e5a3a1;stroke-width:0.27832"
       width="717.4187"
       height="105.1341"
       id="rect2653" /></g><g
     id="g3552"><path
       style="opacity:0.42"
       d="M -9.041,-336.081 H 2762.54 v 749.669 c -545.177,12.639 -664.144,-61.403 -725.897,-43.029 -34.106,10.149 -57.487,41.478 -57.487,77.061 v 114.825 c 0,46.154 -37.416,83.57 -83.57,83.57 v 0 c -46.154,0 -83.57,-37.416 -83.57,-83.57 V 440.579 c 0,-33.204 -19.713,-63.278 -50.161,-76.524 -0.01,-0.004 -0.016,-0.007 -0.025,-0.011 -27.473,-11.953 -59.918,-6.461 -82.057,15.186 -14.656,14.33 -22.283,34.387 -22.283,54.884 v 2.683 c 0,46.154 -37.415,83.57 -83.57,83.57 v 0 c -46.155,0 -83.57,-37.416 -83.57,-83.57 v -98.413 c 0,-47.824 -37.279,-87.259 -85.017,-90.148 -61.194,-3.704 -132.47,-0.102 -219.69,13.784 -214.33,34.12 -347.58,131.244 -622.634,107.786 -50.727,-6.635 -83.123,-14.639 -572.05,-35.74 z"
       clip-path="url(#SVGID_00000065036029895482507690000013570039648581839288_)"
       id="path2661"
       transform="matrix(0.24283799,0,0,0.24283799,-115.49059,-6.2913533)" /><path
       style="fill:#f9b7b5"
       d="m 2762.539,-336.081 v 720.105 c -545.177,12.639 -645.666,-61.403 -707.419,-43.029 -34.106,10.149 -57.487,41.478 -57.487,77.062 v 114.825 c 0,46.155 -37.415,83.57 -83.57,83.57 v 0 c -46.154,0 -83.57,-37.415 -83.57,-83.57 V 411.015 c 0,-33.204 -19.713,-63.278 -50.161,-76.524 -0.01,-0.003 -0.016,-0.007 -0.024,-0.01 -27.473,-11.953 -59.919,-6.461 -82.058,15.186 -14.656,14.33 -22.283,34.387 -22.283,54.884 v 2.682 c 0,46.155 -37.415,83.57 -83.57,83.57 v 0 c -46.154,0 -83.57,-37.416 -83.57,-83.57 V 308.82 c 0,-47.824 -37.279,-87.259 -85.017,-90.148 -61.194,-3.703 -132.47,-0.102 -219.69,13.784 C 989.791,266.576 856.541,363.7 581.486,340.242 520.651,332.286 486.16,322.431 -9.042,290.279 v -626.36 z"
       clip-path="url(#SVGID_00000065036029895482507690000013570039648581839288_)"
       id="path2663"
       transform="matrix(0.24283799,0,0,0.24283799,-115.49059,-6.2913533)" /><path
       style="fill:#ffdede"
       d="m 2762.608,-336.081 v 690.54 c -83.304,12.639 -645.736,-61.404 -707.488,-43.029 -34.106,10.149 -57.487,41.478 -57.487,77.062 v 114.825 c 0,46.155 -37.415,83.57 -83.57,83.57 v 0 c -46.154,0 -83.57,-37.415 -83.57,-83.57 V 381.451 c 0,-33.204 -19.713,-63.278 -50.161,-76.524 -0.01,-0.003 -0.016,-0.007 -0.024,-0.01 -27.473,-11.953 -59.919,-6.461 -82.058,15.186 -14.656,14.33 -22.283,34.387 -22.283,54.884 v 2.682 c 0,46.155 -37.415,83.57 -83.57,83.57 v 0 c -46.154,0 -83.57,-37.416 -83.57,-83.57 v -98.413 c 0,-47.824 -37.279,-87.259 -85.017,-90.148 -61.194,-3.703 -132.47,-0.102 -219.69,13.784 C 989.792,237.013 856.542,334.137 581.487,310.679 520.652,302.723 486.161,292.868 -9.041,260.716 V -336.08 h 2771.649 z"
       clip-path="url(#SVGID_00000065036029895482507690000013570039648581839288_)"
       id="path2665"
       transform="matrix(0.24283799,0,0,0.24283799,-115.49059,-6.2913533)" /></g></g><g
   id="g2691"
   transform="matrix(1.0790618,0,0,1.0790618,-462.89248,246.56985)">
		
		<g
   id="g3668"
   transform="translate(-245.55936,-673.77185)"><g
     id="g3681"
     transform="matrix(0.79823219,-0.21388567,0.21388567,0.79823219,-29.975898,260.16982)"><g
       id="g2675">
			<path
   style="fill:#ece3b1;stroke:#1b1f23;stroke-width:7;stroke-linecap:round;stroke-linejoin:round;stroke-miterlimit:10"
   d="m 817.283,703.637 v 0 c -6.667,-3.886 -6.003,-10.807 -2.118,-17.473 l 29.39,-57.177 c 3.886,-6.666 12.52,-8.942 19.186,-5.056 v 0 c 6.666,3.886 8.941,12.52 5.056,19.186 l -35.268,53.75 c -3.884,6.668 -9.58,10.656 -16.246,6.77 z"
   id="path2669" />
			<g
   id="g2673">
				
					<circle
   style="fill:#ffdede;stroke:#1b1f23;stroke-width:7;stroke-linecap:round;stroke-linejoin:round;stroke-miterlimit:10"
   cx="790.297"
   cy="755.86401"
   r="76.749001"
   id="circle2671" />
			</g>
		</g><g
       id="g2689">
			<g
   id="g2681">
				
					<path
   style="fill:#f9b7b5;stroke:#1b1f23;stroke-width:7;stroke-linecap:round;stroke-linejoin:round;stroke-miterlimit:10"
   d="m 876.181,853.361 -112.535,29.655 c -7.106,1.873 -14.453,-2.058 -16.84,-9.008 l -27.534,-80.201 151.524,-39.929 15.572,83.388 c 1.346,7.205 -3.099,14.227 -10.187,16.095 z"
   id="path2677" />
				
					<path
   style="fill:#e5a3a1;stroke:#1b1f23;stroke-width:7;stroke-linecap:round;stroke-linejoin:round;stroke-miterlimit:10"
   d="m 882.253,750.859 -174.437,45.967 c -1.156,0.305 -2.35,-0.392 -2.655,-1.547 l -4.199,-15.934 c -0.305,-1.156 0.392,-2.35 1.547,-2.655 l 174.437,-45.967 c 1.156,-0.305 2.35,0.392 2.655,1.547 l 4.199,15.934 c 0.305,1.156 -0.392,2.35 -1.547,2.655 z"
   id="path2679" />
			</g>
			<g
   id="g2687">
				<path
   style="fill:#ffdede;stroke:#1b1f23;stroke-width:7;stroke-miterlimit:10"
   d="m 753.604,758.079 11.5,43.642 c 1.387,5.262 -1.784,10.702 -7.046,12.088 v 0 c -5.262,1.387 -10.702,-1.784 -12.088,-7.046 l -11.5,-43.642"
   id="path2683" />
				<path
   style="fill:#ffdede;stroke:#1b1f23;stroke-width:7;stroke-miterlimit:10"
   d="m 787.026,749.272 7.356,27.916 c 1.387,5.262 -1.784,10.702 -7.046,12.088 v 0 c -5.262,1.387 -10.702,-1.784 -12.088,-7.046 l -7.356,-27.916"
   id="path2685" />
			</g>
		</g></g></g>
	</g><g
   id="g2733"
   transform="translate(-1118.9642,21.801007)">
		<g
   id="g2731">
			<g
   id="g2723">
				
					
				
					
				
				<g
   id="g2721">
					
					
				</g>
			</g>
			<g
   id="g3696"
   transform="matrix(1.1614426,0,0,1.1614426,-597.3364,-689.20951)"><ellipse
     transform="matrix(0.2771,-0.9608,0.9608,0.2771,614.3865,2178.2407)"
     style="fill:#c9d4ff;stroke:#1b1f23;stroke-width:7;stroke-miterlimit:10"
     cx="1754.835"
     cy="680.80402"
     rx="34.016998"
     ry="34.015999"
     id="ellipse2711" /><circle
     transform="matrix(0.2771,-0.9608,0.9608,0.2771,551.5175,2169.1484)"
     style="fill:#b4e3ad;stroke:#1b1f23;stroke-width:7;stroke-miterlimit:10"
     cx="1717.359"
     cy="718.03998"
     id="ellipse2713"
     r="34.016998" /><circle
     style="fill:#e2c0fc;stroke:#1b1f23;stroke-width:7;stroke-miterlimit:10"
     cx="1762.197"
     cy="730.97198"
     r="34.016998"
     id="circle2715" /><path
     style="fill:#fff7c5;stroke:#1b1f23;stroke-width:7;stroke-miterlimit:10"
     d="m 1766.585,773.325 -63.602,108.916 c -3.322,5.689 -11.751,3.258 -11.534,-3.327 l 4.169,-126.057 z"
     id="path2717" /><path
     style="fill:#ece3b1;stroke:#1b1f23;stroke-width:7;stroke-miterlimit:10"
     d="m 1766.706,775.299 -72.173,-20.816 c -3.742,-1.079 -5.921,-5.024 -4.842,-8.766 v 0 c 1.079,-3.742 5.024,-5.921 8.767,-4.842 l 72.173,20.816 c 3.742,1.079 5.921,5.025 4.841,8.767 v 0 c -1.079,3.741 -5.024,5.92 -8.766,4.841 z"
     id="path2719" /><g
     id="g2729">
				<path
   style="fill:#e5a3a1;stroke:#1b1f23;stroke-width:7;stroke-miterlimit:10"
   d="m 1777.61,650.294 c 4.578,-7.242 2.418,-16.824 -4.824,-21.403 -7.242,-4.578 -16.825,-2.418 -21.403,4.824 -4.578,7.242 -2.418,16.824 4.824,21.402 7.243,4.579 16.825,2.419 21.403,-4.823 z"
   id="path2725" />
				<path
   style="fill:none;stroke:#e5a3a1;stroke-width:7;stroke-linecap:round;stroke-linejoin:round;stroke-miterlimit:10"
   d="m 1771.54,634.225 c 0,0 5.213,-7.574 16.225,-6.048"
   id="path2727" />
			</g></g>
		</g>
	</g>

</svg>
